<svg xmlns="http://www.w3.org/2000/svg" width="31.867" height="38.305" viewBox="0 0 31.867 38.305"><defs><style>.a{fill:#4531b3;}</style></defs><g transform="translate(73.213) rotate(90)"><g transform="translate(0 41.346)"><path class="a" d="M37.693,55.791,23.86,41.958a2.1,2.1,0,0,0-2.965,0l-1.256,1.256a2.081,2.081,0,0,0-.612,1.482,2.122,2.122,0,0,0,.612,1.5l8.07,8.088H2.069A2.046,2.046,0,0,0,0,56.345v1.776a2.124,2.124,0,0,0,2.069,2.153H27.8l-8.161,8.133a2.076,2.076,0,0,0,0,2.944L20.895,72.6a2.1,2.1,0,0,0,2.965,0L37.693,58.767a2.114,2.114,0,0,0,0-2.976Z" transform="translate(0 -41.346)"/></g></g></svg>